<svg xmlns="http://www.w3.org/2000/svg" viewBox="0 0 384 512"><path d="M318.7 268.7c-.2-36.7 16.4-64.4 50-84.8-18.8-26.9-47.2-41.7-84.7-44.6-35.5-2.8-74.3 20.7-88.5 20.7-15 0-49.4-19.7-76.4-19.7C63.3 141.2 4 184.8 4 273.5q0 39.3 14.4 81.2c12.8 36.7 59 126.7 107.2 125.2 25.2-.6 43-17.9 75.8-17.9 31.8 0 48.3 17.9 76.4 17.9 48.6-.7 90.4-82.5 102.6-119.3-65.2-31.4-97.3-114.3-61.7-172.7zm-78.5-72.1c27.9-33.4 24.8-73.8 24-83-30.6 1.3-64.1 20.8-86.1 46.2-21 24-33.5 54.5-27.7 82.7 35.3 2.6 62.1-12.5 89.8-45.9z" fill="#ffffff"/></svg>
