<svg xmlns="http://www.w3.org/2000/svg" viewBox="0 0 400 400"><circle cx="200" cy="200" r="200" fill="#f7931a"/><path d="M266.8 178.6c3.2-21.3-13-32.8-35.1-40.4l7.2-28.8-17.5-4.4-7 28.1c-4.6-1.1-9.3-2.2-14-3.3l7-28.2-17.5-4.4-7.2 28.8c-3.8-.9-7.6-1.7-11.2-2.6l.1-.3-24.1-6-4.7 18.7s12.9 3 12.7 3.2c7.1 1.8 8.3 6.5 8.1 10.3l-8.2 32.7c.5.1 1.1.3 1.8.5-.6-.2-1.3-.3-1.8-.5l-11.4 45.8c-.9 2.2-3.1 5.4-8 4.2.2.3-12.7-3.2-12.7-3.2l-8.7 20 22.8 5.7c4.2 1.1 8.4 2.2 12.6 3.2l-7.3 29.3 17.5 4.4 7.2-29c4.8 1.3 9.4 2.5 13.9 3.7l-7.2 28.9 17.5 4.4 7.3-29.3c29.9 5.7 52.4 3.4 61.8-23.7 7.6-21.8-.4-34.4-16.1-42.6 11.5-2.6 20.1-10.1 22.4-25.5zm-40.1 55.7c-5.4 21.8-42.1 10-54 7l9.6-38.7c11.9 3 49.9 8.9 44.4 31.7zm5.4-56.1c-4.9 19.8-35.5 9.7-45.3 7.3l8.7-35c9.8 2.4 41.5 6.9 36.6 27.7z" fill="#ffffff"/></svg>
